<mxfile host="app.diagrams.net" modified="2022-05-31T08:21:32.737Z" agent="5.0 (Windows NT 10.0; Win64; x64) AppleWebKit/537.36 (KHTML, like Gecko) Chrome/101.0.4951.64 Safari/537.36 Edg/101.0.1210.53" etag="3z_aRzMILnD8cGAuJED9" version="18.1.3" type="github">
  <diagram id="KE3Y_JJDXEvooJmlkgoM" name="Page-1">
    <mxGraphModel dx="1329" dy="425" grid="0" gridSize="10" guides="1" tooltips="1" connect="1" arrows="1" fold="1" page="0" pageScale="1" pageWidth="827" pageHeight="1169" math="0" shadow="0">
      <root>
        <mxCell id="0" />
        <mxCell id="1" parent="0" />
        <mxCell id="UL9RxV9l1OQldz9KdJYa-1" value="Start" style="ellipse;whiteSpace=wrap;html=1;" parent="1" vertex="1">
          <mxGeometry x="300" y="40" width="100" height="30" as="geometry" />
        </mxCell>
        <mxCell id="UL9RxV9l1OQldz9KdJYa-2" value="" style="endArrow=classic;html=1;rounded=0;exitX=0.5;exitY=1;exitDx=0;exitDy=0;entryX=0.651;entryY=0.019;entryDx=0;entryDy=0;entryPerimeter=0;" parent="1" source="UL9RxV9l1OQldz9KdJYa-1" target="xAPefbZH91MnTpr2km9e-11" edge="1">
          <mxGeometry width="50" height="50" relative="1" as="geometry">
            <mxPoint x="360" y="280" as="sourcePoint" />
            <mxPoint x="350" y="90" as="targetPoint" />
          </mxGeometry>
        </mxCell>
        <mxCell id="UL9RxV9l1OQldz9KdJYa-8" value="" style="endArrow=classic;html=1;rounded=0;" parent="1" edge="1">
          <mxGeometry width="50" height="50" relative="1" as="geometry">
            <mxPoint x="350" y="155" as="sourcePoint" />
            <mxPoint x="350" y="203" as="targetPoint" />
          </mxGeometry>
        </mxCell>
        <mxCell id="UL9RxV9l1OQldz9KdJYa-11" value="RK11(COP1)" style="rhombus;whiteSpace=wrap;html=1;" parent="1" vertex="1">
          <mxGeometry x="290" y="290" width="120" height="50" as="geometry" />
        </mxCell>
        <mxCell id="UL9RxV9l1OQldz9KdJYa-12" value="" style="endArrow=classic;html=1;rounded=0;exitX=0.652;exitY=0.983;exitDx=0;exitDy=0;entryX=0.5;entryY=0;entryDx=0;entryDy=0;exitPerimeter=0;" parent="1" target="UL9RxV9l1OQldz9KdJYa-11" edge="1">
          <mxGeometry width="50" height="50" relative="1" as="geometry">
            <mxPoint x="350.34799999999996" y="259.06499999999994" as="sourcePoint" />
            <mxPoint x="410" y="310" as="targetPoint" />
          </mxGeometry>
        </mxCell>
        <mxCell id="UL9RxV9l1OQldz9KdJYa-13" value="" style="edgeStyle=segmentEdgeStyle;endArrow=classic;html=1;rounded=0;exitX=0.607;exitY=1.15;exitDx=0;exitDy=0;exitPerimeter=0;" parent="1" source="UL9RxV9l1OQldz9KdJYa-30" edge="1">
          <mxGeometry width="50" height="50" relative="1" as="geometry">
            <mxPoint x="256" y="315" as="sourcePoint" />
            <mxPoint x="216" y="349" as="targetPoint" />
            <Array as="points">
              <mxPoint x="292" y="315" />
              <mxPoint x="216" y="315" />
            </Array>
          </mxGeometry>
        </mxCell>
        <mxCell id="UL9RxV9l1OQldz9KdJYa-15" value="" style="edgeStyle=segmentEdgeStyle;endArrow=classic;html=1;rounded=0;exitX=1;exitY=0.5;exitDx=0;exitDy=0;" parent="1" source="UL9RxV9l1OQldz9KdJYa-11" edge="1">
          <mxGeometry width="50" height="50" relative="1" as="geometry">
            <mxPoint x="360" y="360" as="sourcePoint" />
            <mxPoint x="556" y="354" as="targetPoint" />
            <Array as="points">
              <mxPoint x="556" y="315" />
              <mxPoint x="556" y="354" />
            </Array>
          </mxGeometry>
        </mxCell>
        <mxCell id="UL9RxV9l1OQldz9KdJYa-16" value="RK10(COP0), CF" style="rhombus;whiteSpace=wrap;html=1;" parent="1" vertex="1">
          <mxGeometry x="149.5" y="438" width="120" height="50" as="geometry" />
        </mxCell>
        <mxCell id="UL9RxV9l1OQldz9KdJYa-17" value="RK10(COP0)" style="rhombus;whiteSpace=wrap;html=1;" parent="1" vertex="1">
          <mxGeometry x="510" y="440" width="120" height="50" as="geometry" />
        </mxCell>
        <mxCell id="UL9RxV9l1OQldz9KdJYa-23" value="" style="edgeStyle=segmentEdgeStyle;endArrow=classic;html=1;rounded=0;exitX=0;exitY=0.5;exitDx=0;exitDy=0;entryX=0.5;entryY=0;entryDx=0;entryDy=0;" parent="1" edge="1">
          <mxGeometry width="50" height="50" relative="1" as="geometry">
            <mxPoint x="148.5" y="463" as="sourcePoint" />
            <mxPoint x="91.5" y="677" as="targetPoint" />
          </mxGeometry>
        </mxCell>
        <mxCell id="UL9RxV9l1OQldz9KdJYa-26" value="11, 10, 01" style="text;html=1;align=center;verticalAlign=middle;resizable=0;points=[];autosize=1;strokeColor=none;fillColor=none;" parent="1" vertex="1">
          <mxGeometry x="97.5" y="437" width="63" height="18" as="geometry" />
        </mxCell>
        <mxCell id="UL9RxV9l1OQldz9KdJYa-27" value="00" style="text;html=1;align=center;verticalAlign=middle;resizable=0;points=[];autosize=1;strokeColor=none;fillColor=none;" parent="1" vertex="1">
          <mxGeometry x="207.5" y="489" width="23" height="18" as="geometry" />
        </mxCell>
        <mxCell id="UL9RxV9l1OQldz9KdJYa-28" value="" style="edgeStyle=segmentEdgeStyle;endArrow=classic;html=1;rounded=0;exitX=0.5;exitY=1;exitDx=0;exitDy=0;" parent="1" source="Rq9QGD1ZIxuHI4rxeVDs-13" edge="1">
          <mxGeometry width="50" height="50" relative="1" as="geometry">
            <mxPoint x="208.5" y="597" as="sourcePoint" />
            <mxPoint x="95" y="718" as="targetPoint" />
            <Array as="points">
              <mxPoint x="208.5" y="553" />
              <mxPoint x="208.5" y="718" />
            </Array>
          </mxGeometry>
        </mxCell>
        <mxCell id="UL9RxV9l1OQldz9KdJYa-30" value="1" style="text;html=1;align=center;verticalAlign=middle;resizable=0;points=[];autosize=1;strokeColor=none;fillColor=none;" parent="1" vertex="1">
          <mxGeometry x="280" y="290" width="20" height="20" as="geometry" />
        </mxCell>
        <mxCell id="UL9RxV9l1OQldz9KdJYa-31" value="0" style="text;html=1;align=center;verticalAlign=middle;resizable=0;points=[];autosize=1;strokeColor=none;fillColor=none;" parent="1" vertex="1">
          <mxGeometry x="404" y="290" width="20" height="20" as="geometry" />
        </mxCell>
        <mxCell id="UL9RxV9l1OQldz9KdJYa-32" value="" style="endArrow=classic;html=1;rounded=0;exitX=0.5;exitY=1;exitDx=0;exitDy=0;entryX=0.527;entryY=0.017;entryDx=0;entryDy=0;entryPerimeter=0;" parent="1" source="UL9RxV9l1OQldz9KdJYa-17" target="xAPefbZH91MnTpr2km9e-21" edge="1">
          <mxGeometry width="50" height="50" relative="1" as="geometry">
            <mxPoint x="330" y="700" as="sourcePoint" />
            <mxPoint x="569" y="558" as="targetPoint" />
          </mxGeometry>
        </mxCell>
        <mxCell id="UL9RxV9l1OQldz9KdJYa-35" value="" style="endArrow=classic;html=1;rounded=0;exitX=0.511;exitY=1.061;exitDx=0;exitDy=0;exitPerimeter=0;" parent="1" source="xAPefbZH91MnTpr2km9e-21" edge="1">
          <mxGeometry width="50" height="50" relative="1" as="geometry">
            <mxPoint x="571" y="588" as="sourcePoint" />
            <mxPoint x="568" y="622" as="targetPoint" />
          </mxGeometry>
        </mxCell>
        <mxCell id="UL9RxV9l1OQldz9KdJYa-36" value="" style="endArrow=classic;html=1;rounded=0;entryX=0.5;entryY=0;entryDx=0;entryDy=0;" parent="1" edge="1">
          <mxGeometry width="50" height="50" relative="1" as="geometry">
            <mxPoint x="570" y="684" as="sourcePoint" />
            <mxPoint x="570" y="737" as="targetPoint" />
          </mxGeometry>
        </mxCell>
        <mxCell id="UL9RxV9l1OQldz9KdJYa-40" value="" style="endArrow=classic;html=1;rounded=0;exitX=0.5;exitY=1;exitDx=0;exitDy=0;entryX=0.5;entryY=0;entryDx=0;entryDy=0;" parent="1" edge="1">
          <mxGeometry width="50" height="50" relative="1" as="geometry">
            <mxPoint x="570" y="767" as="sourcePoint" />
            <mxPoint x="570" y="797" as="targetPoint" />
          </mxGeometry>
        </mxCell>
        <mxCell id="UL9RxV9l1OQldz9KdJYa-41" value="" style="edgeStyle=segmentEdgeStyle;endArrow=classic;html=1;rounded=0;exitX=0;exitY=0.5;exitDx=0;exitDy=0;entryX=0.5;entryY=0;entryDx=0;entryDy=0;" parent="1" source="UL9RxV9l1OQldz9KdJYa-17" edge="1">
          <mxGeometry width="50" height="50" relative="1" as="geometry">
            <mxPoint x="354" y="578" as="sourcePoint" />
            <mxPoint x="364" y="497" as="targetPoint" />
          </mxGeometry>
        </mxCell>
        <mxCell id="UL9RxV9l1OQldz9KdJYa-42" value="0" style="text;html=1;align=center;verticalAlign=middle;resizable=0;points=[];autosize=1;strokeColor=none;fillColor=none;" parent="1" vertex="1">
          <mxGeometry x="570" y="490" width="20" height="20" as="geometry" />
        </mxCell>
        <mxCell id="UL9RxV9l1OQldz9KdJYa-43" value="1" style="text;html=1;align=center;verticalAlign=middle;resizable=0;points=[];autosize=1;strokeColor=none;fillColor=none;" parent="1" vertex="1">
          <mxGeometry x="490" y="440" width="20" height="20" as="geometry" />
        </mxCell>
        <mxCell id="UL9RxV9l1OQldz9KdJYa-49" value="" style="endArrow=classic;html=1;rounded=0;entryX=0.5;entryY=0;entryDx=0;entryDy=0;" parent="1" edge="1" target="xAPefbZH91MnTpr2km9e-46">
          <mxGeometry width="50" height="50" relative="1" as="geometry">
            <mxPoint x="367" y="548" as="sourcePoint" />
            <mxPoint x="364" y="617" as="targetPoint" />
          </mxGeometry>
        </mxCell>
        <mxCell id="UL9RxV9l1OQldz9KdJYa-50" value="" style="endArrow=classic;html=1;rounded=0;entryX=0.657;entryY=-0.004;entryDx=0;entryDy=0;entryPerimeter=0;" parent="1" target="xAPefbZH91MnTpr2km9e-49" edge="1">
          <mxGeometry width="50" height="50" relative="1" as="geometry">
            <mxPoint x="367" y="642" as="sourcePoint" />
            <mxPoint x="364" y="677" as="targetPoint" />
          </mxGeometry>
        </mxCell>
        <mxCell id="UL9RxV9l1OQldz9KdJYa-54" value="" style="endArrow=classic;html=1;rounded=0;exitX=0.5;exitY=1;exitDx=0;exitDy=0;entryX=0.5;entryY=0;entryDx=0;entryDy=0;" parent="1" edge="1">
          <mxGeometry width="50" height="50" relative="1" as="geometry">
            <mxPoint x="364" y="767" as="sourcePoint" />
            <mxPoint x="364" y="797" as="targetPoint" />
          </mxGeometry>
        </mxCell>
        <mxCell id="UL9RxV9l1OQldz9KdJYa-56" value="" style="endArrow=classic;html=1;rounded=0;exitX=0.5;exitY=1;exitDx=0;exitDy=0;entryX=0.5;entryY=0;entryDx=0;entryDy=0;" parent="1" edge="1">
          <mxGeometry width="50" height="50" relative="1" as="geometry">
            <mxPoint x="364" y="827" as="sourcePoint" />
            <mxPoint x="364" y="857" as="targetPoint" />
          </mxGeometry>
        </mxCell>
        <mxCell id="UL9RxV9l1OQldz9KdJYa-58" value="" style="endArrow=classic;html=1;rounded=0;exitX=0.5;exitY=1;exitDx=0;exitDy=0;entryX=0.5;entryY=0;entryDx=0;entryDy=0;" parent="1" edge="1">
          <mxGeometry width="50" height="50" relative="1" as="geometry">
            <mxPoint x="364" y="887" as="sourcePoint" />
            <mxPoint x="364" y="917" as="targetPoint" />
          </mxGeometry>
        </mxCell>
        <mxCell id="UL9RxV9l1OQldz9KdJYa-59" value="END" style="ellipse;whiteSpace=wrap;html=1;" parent="1" vertex="1">
          <mxGeometry x="304" y="993" width="120" height="40" as="geometry" />
        </mxCell>
        <mxCell id="UL9RxV9l1OQldz9KdJYa-60" value="" style="endArrow=classic;html=1;rounded=0;exitX=0.5;exitY=1;exitDx=0;exitDy=0;entryX=0.5;entryY=0;entryDx=0;entryDy=0;" parent="1" target="UL9RxV9l1OQldz9KdJYa-59" edge="1">
          <mxGeometry width="50" height="50" relative="1" as="geometry">
            <mxPoint x="364" y="947" as="sourcePoint" />
            <mxPoint x="359.5" y="900" as="targetPoint" />
          </mxGeometry>
        </mxCell>
        <mxCell id="UL9RxV9l1OQldz9KdJYa-65" value="" style="edgeStyle=segmentEdgeStyle;endArrow=classic;html=1;rounded=0;" parent="1" source="xAPefbZH91MnTpr2km9e-36" edge="1">
          <mxGeometry width="50" height="50" relative="1" as="geometry">
            <mxPoint x="570" y="933" as="sourcePoint" />
            <mxPoint x="366" y="975" as="targetPoint" />
            <Array as="points">
              <mxPoint x="570" y="975" />
            </Array>
          </mxGeometry>
        </mxCell>
        <mxCell id="UL9RxV9l1OQldz9KdJYa-66" value="1" style="text;html=1;align=center;verticalAlign=middle;resizable=0;points=[];autosize=1;strokeColor=none;fillColor=none;" parent="1" vertex="1">
          <mxGeometry x="87" y="10" width="17" height="18" as="geometry" />
        </mxCell>
        <mxCell id="UL9RxV9l1OQldz9KdJYa-67" value="2" style="text;html=1;align=center;verticalAlign=middle;resizable=0;points=[];autosize=1;strokeColor=none;fillColor=none;" parent="1" vertex="1">
          <mxGeometry x="210.5" y="15" width="17" height="18" as="geometry" />
        </mxCell>
        <mxCell id="UL9RxV9l1OQldz9KdJYa-68" value="3" style="text;html=1;align=center;verticalAlign=middle;resizable=0;points=[];autosize=1;strokeColor=none;fillColor=none;" parent="1" vertex="1">
          <mxGeometry x="345" y="15" width="17" height="18" as="geometry" />
        </mxCell>
        <mxCell id="UL9RxV9l1OQldz9KdJYa-69" value="4" style="text;html=1;align=center;verticalAlign=middle;resizable=0;points=[];autosize=1;strokeColor=none;fillColor=none;" parent="1" vertex="1">
          <mxGeometry x="553" y="15" width="17" height="18" as="geometry" />
        </mxCell>
        <mxCell id="UL9RxV9l1OQldz9KdJYa-70" value="A" style="text;html=1;align=center;verticalAlign=middle;resizable=0;points=[];autosize=1;strokeColor=none;fillColor=none;" parent="1" vertex="1">
          <mxGeometry x="-19.5" y="46" width="18" height="18" as="geometry" />
        </mxCell>
        <mxCell id="UL9RxV9l1OQldz9KdJYa-71" value="B" style="text;html=1;align=center;verticalAlign=middle;resizable=0;points=[];autosize=1;strokeColor=none;fillColor=none;" parent="1" vertex="1">
          <mxGeometry x="-19.5" y="120.5" width="18" height="18" as="geometry" />
        </mxCell>
        <mxCell id="UL9RxV9l1OQldz9KdJYa-72" value="C" style="text;html=1;align=center;verticalAlign=middle;resizable=0;points=[];autosize=1;strokeColor=none;fillColor=none;" parent="1" vertex="1">
          <mxGeometry x="-19.5" y="223.5" width="19" height="18" as="geometry" />
        </mxCell>
        <mxCell id="UL9RxV9l1OQldz9KdJYa-73" value="D" style="text;html=1;align=center;verticalAlign=middle;resizable=0;points=[];autosize=1;strokeColor=none;fillColor=none;" parent="1" vertex="1">
          <mxGeometry x="-19.5" y="306" width="19" height="18" as="geometry" />
        </mxCell>
        <mxCell id="UL9RxV9l1OQldz9KdJYa-76" value="E" style="text;html=1;align=center;verticalAlign=middle;resizable=0;points=[];autosize=1;strokeColor=none;fillColor=none;" parent="1" vertex="1">
          <mxGeometry x="-19" y="360" width="18" height="18" as="geometry" />
        </mxCell>
        <mxCell id="UL9RxV9l1OQldz9KdJYa-77" value="F" style="text;html=1;align=center;verticalAlign=middle;resizable=0;points=[];autosize=1;strokeColor=none;fillColor=none;" parent="1" vertex="1">
          <mxGeometry x="-18" y="456" width="17" height="18" as="geometry" />
        </mxCell>
        <mxCell id="UL9RxV9l1OQldz9KdJYa-78" value="G" style="text;html=1;align=center;verticalAlign=middle;resizable=0;points=[];autosize=1;strokeColor=none;fillColor=none;" parent="1" vertex="1">
          <mxGeometry x="-18" y="530" width="19" height="18" as="geometry" />
        </mxCell>
        <mxCell id="UL9RxV9l1OQldz9KdJYa-79" value="H" style="text;html=1;align=center;verticalAlign=middle;resizable=0;points=[];autosize=1;strokeColor=none;fillColor=none;" parent="1" vertex="1">
          <mxGeometry x="-18" y="564" width="19" height="18" as="geometry" />
        </mxCell>
        <mxCell id="UL9RxV9l1OQldz9KdJYa-80" value="I" style="text;html=1;align=center;verticalAlign=middle;resizable=0;points=[];autosize=1;strokeColor=none;fillColor=none;" parent="1" vertex="1">
          <mxGeometry x="-19.5" y="626" width="13" height="18" as="geometry" />
        </mxCell>
        <mxCell id="UL9RxV9l1OQldz9KdJYa-81" value="J" style="text;html=1;align=center;verticalAlign=middle;resizable=0;points=[];autosize=1;strokeColor=none;fillColor=none;" parent="1" vertex="1">
          <mxGeometry x="-18" y="687" width="16" height="18" as="geometry" />
        </mxCell>
        <mxCell id="UL9RxV9l1OQldz9KdJYa-82" value="K" style="text;html=1;align=center;verticalAlign=middle;resizable=0;points=[];autosize=1;strokeColor=none;fillColor=none;" parent="1" vertex="1">
          <mxGeometry x="-18" y="747" width="18" height="18" as="geometry" />
        </mxCell>
        <mxCell id="UL9RxV9l1OQldz9KdJYa-83" value="L" style="text;html=1;align=center;verticalAlign=middle;resizable=0;points=[];autosize=1;strokeColor=none;fillColor=none;" parent="1" vertex="1">
          <mxGeometry x="-19.5" y="803" width="17" height="18" as="geometry" />
        </mxCell>
        <mxCell id="UL9RxV9l1OQldz9KdJYa-84" value="M" style="text;html=1;align=center;verticalAlign=middle;resizable=0;points=[];autosize=1;strokeColor=none;fillColor=none;" parent="1" vertex="1">
          <mxGeometry x="-20" y="868" width="20" height="18" as="geometry" />
        </mxCell>
        <mxCell id="UL9RxV9l1OQldz9KdJYa-85" value="N" style="text;html=1;align=center;verticalAlign=middle;resizable=0;points=[];autosize=1;strokeColor=none;fillColor=none;" parent="1" vertex="1">
          <mxGeometry x="-20" y="923" width="19" height="18" as="geometry" />
        </mxCell>
        <mxCell id="UL9RxV9l1OQldz9KdJYa-87" value="" style="endArrow=classic;html=1;rounded=0;exitX=0.5;exitY=1;exitDx=0;exitDy=0;entryX=0.5;entryY=0;entryDx=0;entryDy=0;" parent="1" edge="1">
          <mxGeometry width="50" height="50" relative="1" as="geometry">
            <mxPoint x="570" y="827" as="sourcePoint" />
            <mxPoint x="570" y="860" as="targetPoint" />
          </mxGeometry>
        </mxCell>
        <mxCell id="xAPefbZH91MnTpr2km9e-9" value="A" style="strokeWidth=1;shadow=0;dashed=0;align=center;html=1;rSize=10;fillColor=#ffffff;strokeColor=#666666;" parent="1" vertex="1">
          <mxGeometry x="236.5" y="102" width="204.5" height="55" as="geometry" />
        </mxCell>
        <mxCell id="xAPefbZH91MnTpr2km9e-10" value="&lt;font style=&quot;font-size: 12px;&quot;&gt;YC1&lt;br&gt;YC5&lt;br&gt;YC14&lt;br&gt;&lt;/font&gt;" style="strokeColor=inherit;fillColor=inherit;gradientColor=inherit;strokeWidth=1;shadow=0;dashed=0;align=center;html=1;shape=mxgraph.mockup.rrect;rSize=0;fontSize=12;fontColor=#666666;fontStyle=1;resizeHeight=1;" parent="xAPefbZH91MnTpr2km9e-9" vertex="1">
          <mxGeometry width="47" height="55" relative="1" as="geometry">
            <mxPoint x="158" as="offset" />
          </mxGeometry>
        </mxCell>
        <mxCell id="xAPefbZH91MnTpr2km9e-11" value="&lt;p&gt;&lt;span style=&quot;color: rgb(0, 0, 0); font-size: 12px; font-weight: 400;&quot;&gt;RK1 := rd(CK)op&lt;br&gt;&lt;/span&gt;&lt;span style=&quot;color: rgb(0, 0, 0); font-size: 12px; font-weight: 400;&quot;&gt;CK := CK + 1&lt;/span&gt;&lt;span style=&quot;color: rgb(0, 0, 0); font-size: 12px; font-weight: 400;&quot;&gt;&lt;br&gt;&lt;/span&gt;&lt;/p&gt;" style="strokeWidth=1;shadow=0;dashed=0;align=center;html=1;rSize=10;fontSize=17;fontColor=#666666;fontStyle=1;resizeHeight=1;" parent="xAPefbZH91MnTpr2km9e-9" vertex="1">
          <mxGeometry width="124" height="55" relative="1" as="geometry">
            <mxPoint x="34" as="offset" />
          </mxGeometry>
        </mxCell>
        <mxCell id="MhmN1Jns1NANqFbFKauU-1" value="&lt;font style=&quot;font-size: 12px;&quot;&gt;A1&lt;br&gt;&lt;/font&gt;" style="strokeColor=inherit;fillColor=inherit;gradientColor=inherit;strokeWidth=1;shadow=0;dashed=0;align=center;html=1;shape=mxgraph.mockup.rrect;rSize=0;fontSize=12;fontColor=#666666;fontStyle=1;resizeHeight=1;" vertex="1" parent="xAPefbZH91MnTpr2km9e-9">
          <mxGeometry width="34" height="55" relative="1" as="geometry">
            <mxPoint as="offset" />
          </mxGeometry>
        </mxCell>
        <mxCell id="xAPefbZH91MnTpr2km9e-16" value="A" style="strokeWidth=1;shadow=0;dashed=0;align=center;html=1;rSize=10;fillColor=#ffffff;strokeColor=#666666;" parent="1" vertex="1">
          <mxGeometry x="236" y="205" width="202" height="55" as="geometry" />
        </mxCell>
        <mxCell id="xAPefbZH91MnTpr2km9e-17" value="&lt;font style=&quot;font-size: 12px;&quot;&gt;YC2&lt;br&gt;YC5&lt;br&gt;YC14&lt;br&gt;&lt;/font&gt;" style="strokeColor=inherit;fillColor=inherit;gradientColor=inherit;strokeWidth=1;shadow=0;dashed=0;align=center;html=1;shape=mxgraph.mockup.rrect;rSize=0;fontSize=12;fontColor=#666666;fontStyle=1;resizeHeight=1;" parent="xAPefbZH91MnTpr2km9e-16" vertex="1">
          <mxGeometry width="47" height="55" relative="1" as="geometry">
            <mxPoint x="155" as="offset" />
          </mxGeometry>
        </mxCell>
        <mxCell id="xAPefbZH91MnTpr2km9e-18" value="&lt;p&gt;&lt;span style=&quot;color: rgb(0, 0, 0); font-size: 12px; font-weight: 400;&quot;&gt;RK2 := rd(CK)op&lt;br&gt;&lt;/span&gt;&lt;span style=&quot;color: rgb(0, 0, 0); font-size: 12px; font-weight: 400;&quot;&gt;CK := CK + 1&lt;/span&gt;&lt;span style=&quot;color: rgb(0, 0, 0); font-size: 12px; font-weight: 400;&quot;&gt;&lt;br&gt;&lt;/span&gt;&lt;/p&gt;" style="strokeWidth=1;shadow=0;dashed=0;align=center;html=1;rSize=10;fontSize=17;fontColor=#666666;fontStyle=1;resizeHeight=1;" parent="xAPefbZH91MnTpr2km9e-16" vertex="1">
          <mxGeometry width="124" height="55" relative="1" as="geometry">
            <mxPoint x="32" as="offset" />
          </mxGeometry>
        </mxCell>
        <mxCell id="MhmN1Jns1NANqFbFKauU-2" value="&lt;font style=&quot;font-size: 12px;&quot;&gt;A2&lt;br&gt;&lt;/font&gt;" style="strokeColor=inherit;fillColor=inherit;gradientColor=inherit;strokeWidth=1;shadow=0;dashed=0;align=center;html=1;shape=mxgraph.mockup.rrect;rSize=0;fontSize=12;fontColor=#666666;fontStyle=1;resizeHeight=1;" vertex="1" parent="xAPefbZH91MnTpr2km9e-16">
          <mxGeometry width="32" height="55" relative="1" as="geometry">
            <mxPoint as="offset" />
          </mxGeometry>
        </mxCell>
        <mxCell id="xAPefbZH91MnTpr2km9e-19" value="A" style="strokeWidth=1;shadow=0;dashed=0;align=center;html=1;rSize=10;fillColor=#ffffff;strokeColor=#666666;" parent="1" vertex="1">
          <mxGeometry x="490" y="559" width="168" height="28" as="geometry" />
        </mxCell>
        <mxCell id="xAPefbZH91MnTpr2km9e-20" value="&lt;font style=&quot;font-size: 12px;&quot;&gt;YC9&lt;br&gt;&lt;/font&gt;" style="strokeColor=inherit;fillColor=inherit;gradientColor=inherit;strokeWidth=1;shadow=0;dashed=0;align=center;html=1;shape=mxgraph.mockup.rrect;rSize=0;fontSize=12;fontColor=#666666;fontStyle=1;resizeHeight=1;" parent="xAPefbZH91MnTpr2km9e-19" vertex="1">
          <mxGeometry width="47" height="28" relative="1" as="geometry">
            <mxPoint x="123" as="offset" />
          </mxGeometry>
        </mxCell>
        <mxCell id="xAPefbZH91MnTpr2km9e-21" value="&lt;p&gt;&lt;span style=&quot;color: rgb(0, 0, 0); font-size: 12px; font-weight: 400;&quot;&gt;BR1 := rd(R1)rp&lt;/span&gt;&lt;span style=&quot;color: rgb(0, 0, 0); font-size: 12px; font-weight: 400;&quot;&gt;&lt;br&gt;&lt;/span&gt;&lt;/p&gt;" style="strokeWidth=1;shadow=0;dashed=0;align=center;html=1;rSize=10;fontSize=17;fontColor=#666666;fontStyle=1;resizeHeight=1;" parent="xAPefbZH91MnTpr2km9e-19" vertex="1">
          <mxGeometry width="93" height="28" relative="1" as="geometry">
            <mxPoint x="31" as="offset" />
          </mxGeometry>
        </mxCell>
        <mxCell id="MhmN1Jns1NANqFbFKauU-6" value="&lt;font style=&quot;font-size: 12px;&quot;&gt;A8&lt;br&gt;&lt;/font&gt;" style="strokeColor=inherit;fillColor=inherit;gradientColor=inherit;strokeWidth=1;shadow=0;dashed=0;align=center;html=1;shape=mxgraph.mockup.rrect;rSize=0;fontSize=12;fontColor=#666666;fontStyle=1;resizeHeight=1;" vertex="1" parent="xAPefbZH91MnTpr2km9e-19">
          <mxGeometry width="31" height="28" relative="1" as="geometry">
            <mxPoint as="offset" />
          </mxGeometry>
        </mxCell>
        <mxCell id="xAPefbZH91MnTpr2km9e-22" value="A" style="strokeWidth=1;shadow=0;dashed=0;align=center;html=1;rSize=10;fillColor=#ffffff;strokeColor=#666666;" parent="1" vertex="1">
          <mxGeometry x="490" y="623" width="200" height="60" as="geometry" />
        </mxCell>
        <mxCell id="xAPefbZH91MnTpr2km9e-23" value="&lt;font style=&quot;font-size: 12px;&quot;&gt;YC8&lt;br&gt;YC10&lt;br&gt;YC11&lt;br&gt;SNO&lt;br&gt;&lt;/font&gt;" style="strokeColor=inherit;fillColor=inherit;gradientColor=inherit;strokeWidth=1;shadow=0;dashed=0;align=center;html=1;shape=mxgraph.mockup.rrect;rSize=0;fontSize=12;fontColor=#666666;fontStyle=1;resizeHeight=1;" parent="xAPefbZH91MnTpr2km9e-22" vertex="1">
          <mxGeometry width="47" height="60" relative="1" as="geometry">
            <mxPoint x="153" as="offset" />
          </mxGeometry>
        </mxCell>
        <mxCell id="xAPefbZH91MnTpr2km9e-24" value="&lt;p&gt;&lt;span style=&quot;color: rgb(0, 0, 0); font-size: 12px; font-weight: 400;&quot;&gt;BR2 := rd(R2 + 1)rp&lt;/span&gt;&lt;span style=&quot;color: rgb(0, 0, 0); font-size: 12px; font-weight: 400;&quot;&gt;&lt;br&gt;&lt;/span&gt;&lt;/p&gt;" style="strokeWidth=1;shadow=0;dashed=0;align=center;html=1;rSize=10;fontSize=17;fontColor=#666666;fontStyle=1;resizeHeight=1;" parent="xAPefbZH91MnTpr2km9e-22" vertex="1">
          <mxGeometry width="124" height="60" relative="1" as="geometry">
            <mxPoint x="29" as="offset" />
          </mxGeometry>
        </mxCell>
        <mxCell id="MhmN1Jns1NANqFbFKauU-8" value="&lt;font style=&quot;font-size: 12px;&quot;&gt;A9&lt;br&gt;&lt;/font&gt;" style="strokeColor=inherit;fillColor=inherit;gradientColor=inherit;strokeWidth=1;shadow=0;dashed=0;align=center;html=1;shape=mxgraph.mockup.rrect;rSize=0;fontSize=12;fontColor=#666666;fontStyle=1;resizeHeight=1;" vertex="1" parent="xAPefbZH91MnTpr2km9e-22">
          <mxGeometry width="30" height="60" relative="1" as="geometry">
            <mxPoint as="offset" />
          </mxGeometry>
        </mxCell>
        <mxCell id="MhmN1Jns1NANqFbFKauU-13" value="" style="edgeStyle=orthogonalEdgeStyle;rounded=0;orthogonalLoop=1;jettySize=auto;html=1;" edge="1" parent="1" source="xAPefbZH91MnTpr2km9e-25" target="xAPefbZH91MnTpr2km9e-49">
          <mxGeometry relative="1" as="geometry" />
        </mxCell>
        <mxCell id="xAPefbZH91MnTpr2km9e-25" value="" style="strokeWidth=1;shadow=0;dashed=0;align=center;html=1;rSize=10;fillColor=#ffffff;strokeColor=#666666;" parent="1" vertex="1">
          <mxGeometry x="486" y="737" width="200" height="28" as="geometry" />
        </mxCell>
        <mxCell id="xAPefbZH91MnTpr2km9e-26" value="&lt;font style=&quot;font-size: 12px;&quot;&gt;SKO&lt;br&gt;&lt;/font&gt;" style="strokeColor=inherit;fillColor=inherit;gradientColor=inherit;strokeWidth=1;shadow=0;dashed=0;align=center;html=1;shape=mxgraph.mockup.rrect;rSize=0;fontSize=12;fontColor=#666666;fontStyle=1;resizeHeight=1;" parent="xAPefbZH91MnTpr2km9e-25" vertex="1">
          <mxGeometry width="47" height="28" relative="1" as="geometry">
            <mxPoint x="153" as="offset" />
          </mxGeometry>
        </mxCell>
        <mxCell id="xAPefbZH91MnTpr2km9e-28" value="АЛУ" style="shape=process;whiteSpace=wrap;html=1;backgroundOutline=1;" parent="xAPefbZH91MnTpr2km9e-25" vertex="1">
          <mxGeometry x="32" width="125.05" height="28" as="geometry" />
        </mxCell>
        <mxCell id="MhmN1Jns1NANqFbFKauU-14" value="&lt;font style=&quot;font-size: 12px;&quot;&gt;A10&lt;br&gt;&lt;/font&gt;" style="strokeColor=inherit;fillColor=inherit;gradientColor=inherit;strokeWidth=1;shadow=0;dashed=0;align=center;html=1;shape=mxgraph.mockup.rrect;rSize=0;fontSize=12;fontColor=#666666;fontStyle=1;resizeHeight=1;" vertex="1" parent="xAPefbZH91MnTpr2km9e-25">
          <mxGeometry width="32" height="28" relative="1" as="geometry">
            <mxPoint as="offset" />
          </mxGeometry>
        </mxCell>
        <mxCell id="xAPefbZH91MnTpr2km9e-29" value="A" style="strokeWidth=1;shadow=0;dashed=0;align=center;html=1;rSize=10;fillColor=#ffffff;strokeColor=#666666;" parent="1" vertex="1">
          <mxGeometry x="486" y="799" width="200" height="28" as="geometry" />
        </mxCell>
        <mxCell id="xAPefbZH91MnTpr2km9e-30" value="&lt;font style=&quot;font-size: 12px;&quot;&gt;YC6&lt;br&gt;YC10&lt;br&gt;&lt;/font&gt;" style="strokeColor=inherit;fillColor=inherit;gradientColor=inherit;strokeWidth=1;shadow=0;dashed=0;align=center;html=1;shape=mxgraph.mockup.rrect;rSize=0;fontSize=12;fontColor=#666666;fontStyle=1;resizeHeight=1;" parent="xAPefbZH91MnTpr2km9e-29" vertex="1">
          <mxGeometry width="47" height="28" relative="1" as="geometry">
            <mxPoint x="153" as="offset" />
          </mxGeometry>
        </mxCell>
        <mxCell id="xAPefbZH91MnTpr2km9e-31" value="&lt;p&gt;&lt;span style=&quot;color: rgb(0, 0, 0); font-size: 12px; font-weight: 400;&quot;&gt;wr(R2)rp := RRст&lt;/span&gt;&lt;span style=&quot;color: rgb(0, 0, 0); font-size: 12px; font-weight: 400;&quot;&gt;&lt;br&gt;&lt;/span&gt;&lt;/p&gt;" style="strokeWidth=1;shadow=0;dashed=0;align=center;html=1;rSize=10;fontSize=17;fontColor=#666666;fontStyle=1;resizeHeight=1;" parent="xAPefbZH91MnTpr2km9e-29" vertex="1">
          <mxGeometry width="124" height="28" relative="1" as="geometry">
            <mxPoint x="29" as="offset" />
          </mxGeometry>
        </mxCell>
        <mxCell id="MhmN1Jns1NANqFbFKauU-15" value="&lt;font style=&quot;font-size: 12px;&quot;&gt;A11&lt;br&gt;&lt;/font&gt;" style="strokeColor=inherit;fillColor=inherit;gradientColor=inherit;strokeWidth=1;shadow=0;dashed=0;align=center;html=1;shape=mxgraph.mockup.rrect;rSize=0;fontSize=12;fontColor=#666666;fontStyle=1;resizeHeight=1;" vertex="1" parent="xAPefbZH91MnTpr2km9e-29">
          <mxGeometry width="29" height="28" relative="1" as="geometry">
            <mxPoint as="offset" />
          </mxGeometry>
        </mxCell>
        <mxCell id="xAPefbZH91MnTpr2km9e-34" value="A" style="strokeWidth=1;shadow=0;dashed=0;align=center;html=1;rSize=10;fillColor=#ffffff;strokeColor=#666666;" parent="1" vertex="1">
          <mxGeometry x="486" y="863" width="168" height="60" as="geometry" />
        </mxCell>
        <mxCell id="xAPefbZH91MnTpr2km9e-35" value="&lt;font style=&quot;font-size: 12px;&quot;&gt;YC6&lt;br&gt;YC10&lt;br&gt;YC11&lt;br&gt;YC12&lt;br&gt;&lt;/font&gt;" style="strokeColor=inherit;fillColor=inherit;gradientColor=inherit;strokeWidth=1;shadow=0;dashed=0;align=center;html=1;shape=mxgraph.mockup.rrect;rSize=0;fontSize=12;fontColor=#666666;fontStyle=1;resizeHeight=1;" parent="xAPefbZH91MnTpr2km9e-34" vertex="1">
          <mxGeometry width="47" height="59.99999999999999" relative="1" as="geometry">
            <mxPoint x="123" as="offset" />
          </mxGeometry>
        </mxCell>
        <mxCell id="xAPefbZH91MnTpr2km9e-36" value="&lt;p&gt;&lt;span style=&quot;color: rgb(0, 0, 0); font-size: 12px; font-weight: 400;&quot;&gt;wr(R2 + 1)rp := RRмл&lt;/span&gt;&lt;span style=&quot;color: rgb(0, 0, 0); font-size: 12px; font-weight: 400;&quot;&gt;&lt;br&gt;&lt;/span&gt;&lt;/p&gt;" style="strokeWidth=1;shadow=0;dashed=0;align=center;html=1;rSize=10;fontSize=17;fontColor=#666666;fontStyle=1;resizeHeight=1;" parent="xAPefbZH91MnTpr2km9e-34" vertex="1">
          <mxGeometry width="124" height="59.99999999999999" relative="1" as="geometry">
            <mxPoint as="offset" />
          </mxGeometry>
        </mxCell>
        <mxCell id="xAPefbZH91MnTpr2km9e-37" value="A" style="strokeWidth=1;shadow=0;dashed=0;align=center;html=1;rSize=10;fillColor=#ffffff;strokeColor=#666666;" parent="1" vertex="1">
          <mxGeometry x="22" y="677" width="170" height="28" as="geometry" />
        </mxCell>
        <mxCell id="xAPefbZH91MnTpr2km9e-38" value="&lt;font style=&quot;font-size: 12px;&quot;&gt;YC4&lt;br&gt;&lt;/font&gt;" style="strokeColor=inherit;fillColor=inherit;gradientColor=inherit;strokeWidth=1;shadow=0;dashed=0;align=center;html=1;shape=mxgraph.mockup.rrect;rSize=0;fontSize=12;fontColor=#666666;fontStyle=1;resizeHeight=1;" parent="xAPefbZH91MnTpr2km9e-37" vertex="1">
          <mxGeometry width="47" height="28" relative="1" as="geometry">
            <mxPoint x="123" as="offset" />
          </mxGeometry>
        </mxCell>
        <mxCell id="xAPefbZH91MnTpr2km9e-39" value="&lt;p&gt;&lt;span style=&quot;color: rgb(0, 0, 0); font-size: 12px; font-weight: 400;&quot;&gt;CK := CK + OFF&lt;/span&gt;&lt;span style=&quot;color: rgb(0, 0, 0); font-size: 12px; font-weight: 400;&quot;&gt;&lt;br&gt;&lt;/span&gt;&lt;/p&gt;" style="strokeWidth=1;shadow=0;dashed=0;align=center;html=1;rSize=10;fontSize=17;fontColor=#666666;fontStyle=1;resizeHeight=1;" parent="xAPefbZH91MnTpr2km9e-37" vertex="1">
          <mxGeometry width="95" height="28" relative="1" as="geometry">
            <mxPoint x="29" as="offset" />
          </mxGeometry>
        </mxCell>
        <mxCell id="MhmN1Jns1NANqFbFKauU-9" value="&lt;font style=&quot;font-size: 12px;&quot;&gt;A0&lt;br&gt;&lt;/font&gt;" style="strokeColor=inherit;fillColor=inherit;gradientColor=inherit;strokeWidth=1;shadow=0;dashed=0;align=center;html=1;shape=mxgraph.mockup.rrect;rSize=0;fontSize=12;fontColor=#666666;fontStyle=1;resizeHeight=1;" vertex="1" parent="xAPefbZH91MnTpr2km9e-37">
          <mxGeometry width="29" height="28" relative="1" as="geometry">
            <mxPoint as="offset" />
          </mxGeometry>
        </mxCell>
        <mxCell id="xAPefbZH91MnTpr2km9e-40" value="A" style="strokeWidth=1;shadow=0;dashed=0;align=center;html=1;rSize=10;fillColor=#ffffff;strokeColor=#666666;" parent="1" vertex="1">
          <mxGeometry x="294" y="497" width="174" height="55" as="geometry" />
        </mxCell>
        <mxCell id="xAPefbZH91MnTpr2km9e-41" value="&lt;font style=&quot;font-size: 12px;&quot;&gt;YC3&lt;br&gt;YC5&lt;br&gt;YC14&lt;br&gt;&lt;/font&gt;" style="strokeColor=inherit;fillColor=inherit;gradientColor=inherit;strokeWidth=1;shadow=0;dashed=0;align=center;html=1;shape=mxgraph.mockup.rrect;rSize=0;fontSize=12;fontColor=#666666;fontStyle=1;resizeHeight=1;" parent="xAPefbZH91MnTpr2km9e-40" vertex="1">
          <mxGeometry width="43" height="55" relative="1" as="geometry">
            <mxPoint x="131" as="offset" />
          </mxGeometry>
        </mxCell>
        <mxCell id="xAPefbZH91MnTpr2km9e-42" value="&lt;p&gt;&lt;span style=&quot;color: rgb(0, 0, 0); font-size: 12px; font-weight: 400;&quot;&gt;RK3 := rd(CK)op&lt;/span&gt;&lt;span style=&quot;color: rgb(0, 0, 0); font-size: 12px; font-weight: 400;&quot;&gt;&lt;br&gt;&lt;/span&gt;&lt;span style=&quot;color: rgb(0, 0, 0); font-size: 12px; font-weight: 400;&quot;&gt;CK := CK + 1&lt;/span&gt;&lt;span style=&quot;color: rgb(0, 0, 0); font-size: 12px; font-weight: 400;&quot;&gt;&lt;br&gt;&lt;/span&gt;&lt;/p&gt;" style="strokeWidth=1;shadow=0;dashed=0;align=center;html=1;rSize=10;fontSize=17;fontColor=#666666;fontStyle=1;resizeHeight=1;" parent="xAPefbZH91MnTpr2km9e-40" vertex="1">
          <mxGeometry width="100" height="55" relative="1" as="geometry">
            <mxPoint x="31" as="offset" />
          </mxGeometry>
        </mxCell>
        <mxCell id="MhmN1Jns1NANqFbFKauU-3" value="&lt;font style=&quot;font-size: 12px;&quot;&gt;A12&lt;br&gt;&lt;/font&gt;" style="strokeColor=inherit;fillColor=inherit;gradientColor=inherit;strokeWidth=1;shadow=0;dashed=0;align=center;html=1;shape=mxgraph.mockup.rrect;rSize=0;fontSize=12;fontColor=#666666;fontStyle=1;resizeHeight=1;" vertex="1" parent="xAPefbZH91MnTpr2km9e-40">
          <mxGeometry width="32" height="55" relative="1" as="geometry">
            <mxPoint as="offset" />
          </mxGeometry>
        </mxCell>
        <mxCell id="xAPefbZH91MnTpr2km9e-44" value="A" style="strokeWidth=1;shadow=0;dashed=0;align=center;html=1;rSize=10;fillColor=#ffffff;strokeColor=#666666;" parent="1" vertex="1">
          <mxGeometry x="280.75" y="616" width="195.25" height="28" as="geometry" />
        </mxCell>
        <mxCell id="xAPefbZH91MnTpr2km9e-45" value="&lt;font style=&quot;font-size: 12px;&quot;&gt;YC11&lt;br&gt;YC15&lt;br&gt;&lt;/font&gt;" style="strokeColor=inherit;fillColor=inherit;gradientColor=inherit;strokeWidth=1;shadow=0;dashed=0;align=center;html=1;shape=mxgraph.mockup.rrect;rSize=0;fontSize=12;fontColor=#666666;fontStyle=1;resizeHeight=1;" parent="xAPefbZH91MnTpr2km9e-44" vertex="1">
          <mxGeometry width="47" height="28" relative="1" as="geometry">
            <mxPoint x="148" as="offset" />
          </mxGeometry>
        </mxCell>
        <mxCell id="xAPefbZH91MnTpr2km9e-46" value="&lt;p&gt;&lt;span style=&quot;color: rgb(0, 0, 0); font-size: 12px; font-weight: 400;&quot;&gt;RIA := rd(rd(RI2)rp)op&lt;/span&gt;&lt;span style=&quot;color: rgb(0, 0, 0); font-size: 12px; font-weight: 400;&quot;&gt;&lt;br&gt;&lt;/span&gt;&lt;/p&gt;" style="strokeWidth=1;shadow=0;dashed=0;align=center;html=1;rSize=10;fontSize=17;fontColor=#666666;fontStyle=1;resizeHeight=1;" parent="xAPefbZH91MnTpr2km9e-44" vertex="1">
          <mxGeometry width="124" height="28" relative="1" as="geometry">
            <mxPoint x="24" as="offset" />
          </mxGeometry>
        </mxCell>
        <mxCell id="MhmN1Jns1NANqFbFKauU-7" value="&lt;font style=&quot;font-size: 12px;&quot;&gt;A13&lt;br&gt;&lt;/font&gt;" style="strokeColor=inherit;fillColor=inherit;gradientColor=inherit;strokeWidth=1;shadow=0;dashed=0;align=center;html=1;shape=mxgraph.mockup.rrect;rSize=0;fontSize=12;fontColor=#666666;fontStyle=1;resizeHeight=1;" vertex="1" parent="xAPefbZH91MnTpr2km9e-44">
          <mxGeometry width="24" height="28" relative="1" as="geometry">
            <mxPoint as="offset" />
          </mxGeometry>
        </mxCell>
        <mxCell id="xAPefbZH91MnTpr2km9e-47" value="A" style="strokeWidth=1;shadow=0;dashed=0;align=center;html=1;rSize=10;fillColor=#ffffff;strokeColor=#666666;" parent="1" vertex="1">
          <mxGeometry x="237" y="699" width="223" height="66" as="geometry" />
        </mxCell>
        <mxCell id="xAPefbZH91MnTpr2km9e-48" value="&lt;font style=&quot;font-size: 12px&quot;&gt;YC11&lt;br&gt;YC6&lt;br&gt;YC13&lt;br&gt;YC8&lt;br&gt;&lt;/font&gt;" style="strokeColor=inherit;fillColor=inherit;gradientColor=inherit;strokeWidth=1;shadow=0;dashed=0;align=center;html=1;shape=mxgraph.mockup.rrect;rSize=0;fontSize=12;fontColor=#666666;fontStyle=1;resizeHeight=1;" parent="xAPefbZH91MnTpr2km9e-47" vertex="1">
          <mxGeometry width="47" height="66" relative="1" as="geometry">
            <mxPoint x="176" as="offset" />
          </mxGeometry>
        </mxCell>
        <mxCell id="xAPefbZH91MnTpr2km9e-49" value="&lt;p&gt;&lt;span style=&quot;color: rgb(0 , 0 , 0) ; font-size: 12px ; font-weight: 400&quot;&gt;wr(RI2)rp := rd(RI2)rp - 1&lt;br&gt;&lt;/span&gt;&lt;span style=&quot;color: rgb(0 , 0 , 0) ; font-size: 12px ; font-weight: 400&quot;&gt;BR2 := rd(RIA)op[мл/ст]&lt;/span&gt;&lt;span style=&quot;color: rgb(0 , 0 , 0) ; font-size: 12px ; font-weight: 400&quot;&gt;&lt;br&gt;&lt;/span&gt;&lt;/p&gt;" style="strokeWidth=1;shadow=0;dashed=0;align=center;html=1;rSize=10;fontSize=17;fontColor=#666666;fontStyle=1;resizeHeight=1;" parent="xAPefbZH91MnTpr2km9e-47" vertex="1">
          <mxGeometry width="143" height="66" relative="1" as="geometry">
            <mxPoint x="36" as="offset" />
          </mxGeometry>
        </mxCell>
        <mxCell id="MhmN1Jns1NANqFbFKauU-12" value="&lt;font style=&quot;font-size: 12px&quot;&gt;A14&lt;br&gt;&lt;/font&gt;" style="strokeColor=inherit;fillColor=inherit;gradientColor=inherit;strokeWidth=1;shadow=0;dashed=0;align=center;html=1;shape=mxgraph.mockup.rrect;rSize=0;fontSize=12;fontColor=#666666;fontStyle=1;resizeHeight=1;" vertex="1" parent="xAPefbZH91MnTpr2km9e-47">
          <mxGeometry width="36" height="66" relative="1" as="geometry">
            <mxPoint as="offset" />
          </mxGeometry>
        </mxCell>
        <mxCell id="xAPefbZH91MnTpr2km9e-53" value="A" style="strokeWidth=1;shadow=0;dashed=0;align=center;html=1;rSize=10;fillColor=#ffffff;strokeColor=#666666;" parent="1" vertex="1">
          <mxGeometry x="288.75" y="798" width="152" height="28" as="geometry" />
        </mxCell>
        <mxCell id="xAPefbZH91MnTpr2km9e-54" value="&lt;font style=&quot;font-size: 12px;&quot;&gt;YC9&lt;br&gt;SNO&lt;br&gt;&lt;/font&gt;" style="strokeColor=inherit;fillColor=inherit;gradientColor=inherit;strokeWidth=1;shadow=0;dashed=0;align=center;html=1;shape=mxgraph.mockup.rrect;rSize=0;fontSize=12;fontColor=#666666;fontStyle=1;resizeHeight=1;" parent="xAPefbZH91MnTpr2km9e-53" vertex="1">
          <mxGeometry width="47" height="28" relative="1" as="geometry">
            <mxPoint x="105" as="offset" />
          </mxGeometry>
        </mxCell>
        <mxCell id="xAPefbZH91MnTpr2km9e-55" value="&lt;p&gt;&lt;span style=&quot;color: rgb(0, 0, 0); font-size: 12px; font-weight: 400;&quot;&gt;BR1 := N1&lt;/span&gt;&lt;span style=&quot;color: rgb(0, 0, 0); font-size: 12px; font-weight: 400;&quot;&gt;&lt;br&gt;&lt;/span&gt;&lt;/p&gt;" style="strokeWidth=1;shadow=0;dashed=0;align=center;html=1;rSize=10;fontSize=17;fontColor=#666666;fontStyle=1;resizeHeight=1;" parent="xAPefbZH91MnTpr2km9e-53" vertex="1">
          <mxGeometry width="105" height="28" relative="1" as="geometry">
            <mxPoint as="offset" />
          </mxGeometry>
        </mxCell>
        <mxCell id="OzIiqpgJKj1dJZe_acPl-1" value="" style="strokeWidth=1;shadow=0;dashed=0;align=center;html=1;rSize=10;fillColor=#ffffff;strokeColor=#666666;" parent="1" vertex="1">
          <mxGeometry x="280" y="858" width="168" height="28" as="geometry" />
        </mxCell>
        <mxCell id="OzIiqpgJKj1dJZe_acPl-2" value="&lt;font style=&quot;font-size: 12px;&quot;&gt;SKO&lt;br&gt;&lt;/font&gt;" style="strokeColor=inherit;fillColor=inherit;gradientColor=inherit;strokeWidth=1;shadow=0;dashed=0;align=center;html=1;shape=mxgraph.mockup.rrect;rSize=0;fontSize=12;fontColor=#666666;fontStyle=1;resizeHeight=1;" parent="OzIiqpgJKj1dJZe_acPl-1" vertex="1">
          <mxGeometry width="47" height="28" relative="1" as="geometry">
            <mxPoint x="123" as="offset" />
          </mxGeometry>
        </mxCell>
        <mxCell id="OzIiqpgJKj1dJZe_acPl-3" value="АЛУ" style="shape=process;whiteSpace=wrap;html=1;backgroundOutline=1;" parent="OzIiqpgJKj1dJZe_acPl-1" vertex="1">
          <mxGeometry x="1" width="121" height="28" as="geometry" />
        </mxCell>
        <mxCell id="OzIiqpgJKj1dJZe_acPl-4" value="A" style="strokeWidth=1;shadow=0;dashed=0;align=center;html=1;rSize=10;fillColor=#ffffff;strokeColor=#666666;" parent="1" vertex="1">
          <mxGeometry x="289" y="918" width="152" height="28" as="geometry" />
        </mxCell>
        <mxCell id="OzIiqpgJKj1dJZe_acPl-5" value="&lt;font style=&quot;font-size: 12px;&quot;&gt;YC13&lt;br&gt;YC7&lt;br&gt;&lt;/font&gt;" style="strokeColor=inherit;fillColor=inherit;gradientColor=inherit;strokeWidth=1;shadow=0;dashed=0;align=center;html=1;shape=mxgraph.mockup.rrect;rSize=0;fontSize=12;fontColor=#666666;fontStyle=1;resizeHeight=1;" parent="OzIiqpgJKj1dJZe_acPl-4" vertex="1">
          <mxGeometry width="47" height="28" relative="1" as="geometry">
            <mxPoint x="105" as="offset" />
          </mxGeometry>
        </mxCell>
        <mxCell id="OzIiqpgJKj1dJZe_acPl-6" value="&lt;p&gt;&lt;span style=&quot;color: rgb(0, 0, 0); font-size: 12px; font-weight: 400;&quot;&gt;wr(RIA)op := RR&lt;/span&gt;&lt;span style=&quot;color: rgb(0, 0, 0); font-size: 12px; font-weight: 400;&quot;&gt;&lt;br&gt;&lt;/span&gt;&lt;/p&gt;" style="strokeWidth=1;shadow=0;dashed=0;align=center;html=1;rSize=10;fontSize=17;fontColor=#666666;fontStyle=1;resizeHeight=1;" parent="OzIiqpgJKj1dJZe_acPl-4" vertex="1">
          <mxGeometry width="105" height="28" relative="1" as="geometry">
            <mxPoint as="offset" />
          </mxGeometry>
        </mxCell>
        <mxCell id="Rq9QGD1ZIxuHI4rxeVDs-2" value="" style="strokeWidth=1;shadow=0;dashed=0;align=center;html=1;rSize=10;fillColor=#ffffff;strokeColor=#666666;" parent="1" vertex="1">
          <mxGeometry x="152" y="350" width="152" height="28" as="geometry" />
        </mxCell>
        <mxCell id="Rq9QGD1ZIxuHI4rxeVDs-3" value="&lt;font style=&quot;font-size: 12px;&quot;&gt;A6&lt;br&gt;&lt;/font&gt;" style="strokeColor=inherit;fillColor=inherit;gradientColor=inherit;strokeWidth=1;shadow=0;dashed=0;align=center;html=1;shape=mxgraph.mockup.rrect;rSize=0;fontSize=12;fontColor=#666666;fontStyle=1;resizeHeight=1;" parent="Rq9QGD1ZIxuHI4rxeVDs-2" vertex="1">
          <mxGeometry width="32" height="28" relative="1" as="geometry">
            <mxPoint as="offset" />
          </mxGeometry>
        </mxCell>
        <mxCell id="Rq9QGD1ZIxuHI4rxeVDs-4" value="&lt;p&gt;&lt;span style=&quot;color: rgb(0, 0, 0); font-size: 12px; font-weight: 400;&quot;&gt;NOP&lt;/span&gt;&lt;span style=&quot;color: rgb(0, 0, 0); font-size: 12px; font-weight: 400;&quot;&gt;&lt;br&gt;&lt;/span&gt;&lt;/p&gt;" style="strokeWidth=1;shadow=0;dashed=0;align=center;html=1;rSize=10;fontSize=17;fontColor=#666666;fontStyle=1;resizeHeight=1;" parent="Rq9QGD1ZIxuHI4rxeVDs-2" vertex="1">
          <mxGeometry width="121" height="28" relative="1" as="geometry">
            <mxPoint x="31" as="offset" />
          </mxGeometry>
        </mxCell>
        <mxCell id="Rq9QGD1ZIxuHI4rxeVDs-8" value="" style="strokeWidth=1;shadow=0;dashed=0;align=center;html=1;rSize=10;fillColor=#ffffff;strokeColor=#666666;" parent="1" vertex="1">
          <mxGeometry x="485" y="355" width="149" height="28" as="geometry" />
        </mxCell>
        <mxCell id="Rq9QGD1ZIxuHI4rxeVDs-9" value="&lt;font style=&quot;font-size: 12px;&quot;&gt;A4&lt;br&gt;&lt;/font&gt;" style="strokeColor=inherit;fillColor=inherit;gradientColor=inherit;strokeWidth=1;shadow=0;dashed=0;align=center;html=1;shape=mxgraph.mockup.rrect;rSize=0;fontSize=12;fontColor=#666666;fontStyle=1;resizeHeight=1;" parent="Rq9QGD1ZIxuHI4rxeVDs-8" vertex="1">
          <mxGeometry width="37" height="28" relative="1" as="geometry">
            <mxPoint as="offset" />
          </mxGeometry>
        </mxCell>
        <mxCell id="Rq9QGD1ZIxuHI4rxeVDs-10" value="&lt;p&gt;&lt;span style=&quot;color: rgb(0, 0, 0); font-size: 12px; font-weight: 400;&quot;&gt;NOP&lt;/span&gt;&lt;span style=&quot;color: rgb(0, 0, 0); font-size: 12px; font-weight: 400;&quot;&gt;&lt;br&gt;&lt;/span&gt;&lt;/p&gt;" style="strokeWidth=1;shadow=0;dashed=0;align=center;html=1;rSize=10;fontSize=17;fontColor=#666666;fontStyle=1;resizeHeight=1;" parent="Rq9QGD1ZIxuHI4rxeVDs-8" vertex="1">
          <mxGeometry width="112" height="28" relative="1" as="geometry">
            <mxPoint x="36" as="offset" />
          </mxGeometry>
        </mxCell>
        <mxCell id="Rq9QGD1ZIxuHI4rxeVDs-11" value="" style="strokeWidth=1;shadow=0;dashed=0;align=center;html=1;rSize=10;fillColor=#ffffff;strokeColor=#666666;" parent="1" vertex="1">
          <mxGeometry x="121.5" y="525" width="138" height="28" as="geometry" />
        </mxCell>
        <mxCell id="Rq9QGD1ZIxuHI4rxeVDs-12" value="&lt;font style=&quot;font-size: 12px;&quot;&gt;A0&lt;br&gt;&lt;/font&gt;" style="strokeColor=inherit;fillColor=inherit;gradientColor=inherit;strokeWidth=1;shadow=0;dashed=0;align=center;html=1;shape=mxgraph.mockup.rrect;rSize=0;fontSize=12;fontColor=#666666;fontStyle=1;resizeHeight=1;" parent="Rq9QGD1ZIxuHI4rxeVDs-11" vertex="1">
          <mxGeometry width="32" height="28" relative="1" as="geometry">
            <mxPoint as="offset" />
          </mxGeometry>
        </mxCell>
        <mxCell id="Rq9QGD1ZIxuHI4rxeVDs-13" value="&lt;p&gt;&lt;span style=&quot;color: rgb(0, 0, 0); font-size: 12px; font-weight: 400;&quot;&gt;NOP&lt;/span&gt;&lt;span style=&quot;color: rgb(0, 0, 0); font-size: 12px; font-weight: 400;&quot;&gt;&lt;br&gt;&lt;/span&gt;&lt;/p&gt;" style="strokeWidth=1;shadow=0;dashed=0;align=center;html=1;rSize=10;fontSize=17;fontColor=#666666;fontStyle=1;resizeHeight=1;" parent="Rq9QGD1ZIxuHI4rxeVDs-11" vertex="1">
          <mxGeometry width="109" height="28" relative="1" as="geometry">
            <mxPoint x="29" as="offset" />
          </mxGeometry>
        </mxCell>
        <mxCell id="Rq9QGD1ZIxuHI4rxeVDs-14" value="" style="endArrow=classic;html=1;rounded=0;exitX=0.5;exitY=1;exitDx=0;exitDy=0;entryX=0.538;entryY=-0.013;entryDx=0;entryDy=0;entryPerimeter=0;" parent="1" source="UL9RxV9l1OQldz9KdJYa-16" target="Rq9QGD1ZIxuHI4rxeVDs-13" edge="1">
          <mxGeometry width="50" height="50" relative="1" as="geometry">
            <mxPoint x="279.5" y="553" as="sourcePoint" />
            <mxPoint x="329.5" y="503" as="targetPoint" />
          </mxGeometry>
        </mxCell>
        <mxCell id="Rq9QGD1ZIxuHI4rxeVDs-15" value="" style="endArrow=classic;html=1;rounded=0;entryX=0.5;entryY=0;entryDx=0;entryDy=0;" parent="1" target="UL9RxV9l1OQldz9KdJYa-16" edge="1">
          <mxGeometry width="50" height="50" relative="1" as="geometry">
            <mxPoint x="210" y="379" as="sourcePoint" />
            <mxPoint x="411" y="485" as="targetPoint" />
          </mxGeometry>
        </mxCell>
        <mxCell id="Rq9QGD1ZIxuHI4rxeVDs-16" value="" style="endArrow=classic;html=1;rounded=0;entryX=0.5;entryY=0;entryDx=0;entryDy=0;" parent="1" target="UL9RxV9l1OQldz9KdJYa-17" edge="1">
          <mxGeometry width="50" height="50" relative="1" as="geometry">
            <mxPoint x="570" y="382" as="sourcePoint" />
            <mxPoint x="219.5" y="448" as="targetPoint" />
          </mxGeometry>
        </mxCell>
        <mxCell id="Rq9QGD1ZIxuHI4rxeVDs-17" value="" style="endArrow=classic;html=1;rounded=0;exitX=0.474;exitY=0.971;exitDx=0;exitDy=0;exitPerimeter=0;" parent="1" source="xAPefbZH91MnTpr2km9e-39" edge="1">
          <mxGeometry width="50" height="50" relative="1" as="geometry">
            <mxPoint x="375" y="813" as="sourcePoint" />
            <mxPoint x="95" y="853" as="targetPoint" />
          </mxGeometry>
        </mxCell>
        <mxCell id="Rq9QGD1ZIxuHI4rxeVDs-18" value="END" style="ellipse;whiteSpace=wrap;html=1;" parent="1" vertex="1">
          <mxGeometry x="35.5" y="852" width="120" height="40" as="geometry" />
        </mxCell>
        <mxCell id="Rq9QGD1ZIxuHI4rxeVDs-19" value="O" style="text;html=1;align=center;verticalAlign=middle;resizable=0;points=[];autosize=1;strokeColor=none;fillColor=none;" parent="1" vertex="1">
          <mxGeometry x="-18.5" y="993" width="19" height="18" as="geometry" />
        </mxCell>
      </root>
    </mxGraphModel>
  </diagram>
</mxfile>
